# xmcd
#
# Track frame offsets:
#	150
#	14918
#	26315
#	33600
#	46573
#	55940
#	66303
#	77768
#	96475
#	111508
#	124495
#	134523
#	142295
#	152118
#	162928
#	175683
#
# Disc length: 2544 seconds
#
# Revision: 1
# Processed by: cddbd v1.5.1PL0 Copyright (c) Steve Scherf et al.
# Submitted via: audiograbber 1.83.01
#
DISCID=eb09ee10
DTITLE=Various Artist - Country&Western Festival - CD 4
DYEAR=1991
DGENRE=Country
TTITLE0=Willie Nelson - Will You Remember Mine
TTITLE1=George Jones - I Can't Change Over Night
TTITLE2=Conway Twitty - Treat Me Mean Treat Me Cruel
TTITLE3=Faron Young - I Fall To Peaces
TTITLE4=Ray Pillow - Livin' In The Shuneshine Of Your Love
TTITLE5=Carl Perkins - Daddy Sang Bass
TTITLE6=Johnny Paycheck - I Don't Need To Know That Right Now
TTITLE7=Blackwater Band - Lighthouse Bar
TTITLE8=Willie Nelson - And So Will You My Love
TTITLE9=George Jones - (She's) Just A Girl I Used To Know
TTITLE10=Conway Twitty - Where I Stand
TTITLE11=Faron Young - Your Cheatin' Heart
TTITLE12=Ray Pillow - We're Together Again
TTITLE13=Carl Perkins - What I'm Livin' For
TTITLE14=Johnny Paycheck - Georgia In A Jug
TTITLE15=Blackwater Band - Airport Song
EXTD=
EXTT0=
EXTT1=
EXTT2=
EXTT3=
EXTT4=
EXTT5=
EXTT6=
EXTT7=
EXTT8=
EXTT9=
EXTT10=
EXTT11=
EXTT12=
EXTT13=
EXTT14=
EXTT15=
PLAYORDER=
